PathFileType	4	(X/Y/Z)	c:/Users/goper/Files/vsCode/490R/osim_files/C17/C17_Static.trc
DataRate	CameraRate	NumFrames	NumMarkers	Units                	OrigDataRate	OrigDataStartFrame	OrigNumFrames
250.00	250.00	4	36	mm	250.0	815	3257
                Frame#	Time	LPSIS			LASIS			LTH1			LTH2			LTH3			LTH4			LLFE			LMFE			LSH1			LSH2			LSH3			LSH4			LLMAL			LMMAL			LCAL			LMTP5			LTOE			LMTP1			RPSIS			RASIS			RTH1			RTH2			RTH3			RTH4			RLFE			RMFE			RSH1			RSH2			RSH3			RSH4			RLMAL			RMMAL			RCAL			RMTP1			RTOE			RMTP5		
		X1	Y1	Z1	X2	Y2	Z2	X3	Y3	Z3	X4	Y4	Z4	X5	Y5	Z5	X6	Y6	Z6	X7	Y7	Z7	X8	Y8	Z8	X9	Y9	Z9	X10	Y10	Z10	X11	Y11	Z11	X12	Y12	Z12	X13	Y13	Z13	X14	Y14	Z14	X15	Y15	Z15	X16	Y16	Z16	X17	Y17	Z17	X18	Y18	Z18	X19	Y19	Z19	X20	Y20	Z20	X21	Y21	Z21	X22	Y22	Z22	X23	Y23	Z23	X24	Y24	Z24	X25	Y25	Z25	X26	Y26	Z26	X27	Y27	Z27	X28	Y28	Z28	X29	Y29	Z29	X30	Y30	Z30	X31	Y31	Z31	X32	Y32	Z32	X33	Y33	Z33	X34	Y34	Z34	X35	Y35	Z35	X36	Y36	Z36

815	3.25600	-308.30200	1077.35132	398.93430	-95.12209	1031.73694	311.24036	-199.63480	754.29468	259.45255	-198.25021	709.95227	259.87915	-137.50600	752.03760	258.46133	-144.23866	707.50848	259.62799	-204.48399	514.26733	277.57224	-203.58147	504.76227	400.25134	-276.59399	290.23373	261.58615	-275.73615	247.13232	259.85074	-213.69571	284.19382	255.33096	-223.52422	241.01546	256.70029	-260.07126	98.40706	267.01498	-245.94963	98.05505	352.92166	-333.18933	55.06398	309.08710	-143.25014	41.07681	235.86057	-82.92891	58.77636	302.94135	-100.70809	40.67059	352.54849	-310.63431	1069.03259	472.63928	-122.45164	1041.43469	592.03888	-206.72438	783.52612	653.70422	-209.81593	737.24860	649.87622	-147.35378	775.20135	649.66473	-158.26353	728.71283	650.49371	-210.00162	508.05594	649.16504	-215.18805	503.58716	523.39282	-292.57117	329.99133	675.01080	-290.77753	284.07709	671.80206	-230.93417	324.69034	679.29266	-238.91626	277.91049	676.55713	-271.65335	91.50211	664.70880	-244.62198	101.56835	578.57501	-338.93982	51.34452	628.69354	-105.95655	41.78207	578.18781	-89.63468	62.49514	624.57544	-142.04716	35.74847	696.65106
816	3.26000	-308.34988	1077.33130	398.91632	-95.10650	1031.73401	311.24686	-199.72723	754.28430	259.48816	-198.28261	709.94220	259.88022	-137.53091	752.03906	258.45209	-144.27708	707.50507	259.63467	-204.51854	514.25067	277.58136	-203.66339	504.74765	400.25012	-276.61057	290.21008	261.57431	-275.76337	247.09761	259.84863	-213.71980	284.19650	255.34358	-223.54312	241.00237	256.69498	-260.09882	98.37616	267.02582	-246.16705	97.80654	353.00592	-333.19565	55.05490	309.09695	-143.26938	41.07606	235.84799	-82.94737	58.79712	302.94028	-100.74138	40.64946	352.54526	-310.64508	1069.02515	472.63437	-122.53661	1041.42859	592.01801	-206.80045	783.51813	653.69501	-209.86006	737.24390	649.87134	-147.37570	775.22675	649.66223	-158.29765	728.73297	650.51129	-210.03464	508.03531	649.16125	-215.30913	503.53226	523.41595	-292.62042	329.99310	675.00629	-290.84021	284.00970	671.78369	-230.94571	324.70038	679.30396	-238.92877	277.89224	676.57648	-271.66205	91.48370	664.69635	-244.63286	101.56594	578.58026	-338.95258	51.37337	628.67914	-105.95969	41.77520	578.17096	-89.60593	62.50916	624.56757	-142.05524	35.74681	696.65198
817	3.26400	-308.36948	1077.32361	398.90613	-95.15688	1031.72913	311.24982	-199.75482	754.25482	259.49786	-198.32797	709.93713	259.89523	-137.56976	752.02936	258.44693	-144.31912	707.50604	259.64230	-204.56871	514.24054	277.59427	-203.74461	504.69974	400.23911	-276.61829	290.27213	261.56293	-275.81149	247.07834	259.86292	-213.73485	284.18835	255.34450	-223.23221	241.34944	256.82077	-260.11206	98.37666	267.02155	-245.96654	98.08916	352.89911	-333.20837	55.04526	309.09067	-143.28763	41.07838	235.84897	-82.95657	58.81057	302.93146	-100.76691	40.65358	352.55151	-310.68097	1069.02356	472.61761	-122.61658	1041.43018	592.00635	-206.88338	783.50323	653.67639	-209.91512	737.24451	649.85254	-147.46240	775.22833	649.68750	-158.36060	728.76868	650.55310	-210.12790	508.02426	649.14655	-215.34282	503.54407	523.42865	-292.63834	329.97714	675.01160	-289.92215	284.95245	672.22693	-230.96216	324.70026	679.30182	-238.95409	277.88821	676.57251	-271.68805	91.46989	664.69409	-244.65274	101.55116	578.58466	-339.00266	51.39585	628.67633	-105.97419	41.78488	578.18402	-89.62635	62.50627	624.57056	-142.08296	35.73977	696.64502
818	3.26800	-308.41165	1077.29211	398.91791	-95.18317	1031.70422	311.26187	-199.87523	754.18665	259.53067	-198.38708	709.89771	259.90201	-137.61501	752.01556	258.46533	-144.37379	707.47064	259.64651	-204.62167	514.21124	277.61237	-203.80522	504.66388	400.23984	-276.69601	290.20264	261.61011	-275.83231	247.03302	259.88272	-213.77089	284.17105	255.34323	-223.62344	240.95775	256.70572	-260.14914	98.33820	267.03717	-246.23637	97.78265	352.98706	-333.23227	54.98633	309.08185	-143.30833	41.05263	235.86043	-82.97256	58.80445	302.93918	-101.01788	40.38050	352.61224	-310.70197	1068.99829	472.63385	-122.68216	1041.40918	591.99042	-206.97481	783.48804	653.66058	-209.98534	737.23254	649.84558	-147.53732	775.22272	649.71881	-158.41307	728.75977	650.55536	-210.18523	507.99426	649.16241	-215.38306	503.49863	523.43201	-292.69238	329.96863	675.02545	-289.89902	284.95755	672.25928	-231.00148	324.68079	679.32782	-238.99249	277.88959	676.61334	-271.72125	91.45741	664.68842	-244.65329	101.53044	578.59711	-339.03516	51.39196	628.68658	-105.93927	41.78874	578.18384	-89.62433	62.49876	624.57239	-142.10574	35.71579	696.66095
